<svg width="35" height="35" viewBox="0 0 35 35" fill="none" xmlns="http://www.w3.org/2000/svg">
<path d="M29.8047 16.2012H9.80614L21.7759 5.81055C21.9673 5.64307 21.8511 5.33203 21.5981 5.33203H18.5732C18.4399 5.33203 18.3135 5.37988 18.2143 5.46533L5.29784 16.6729C5.17954 16.7754 5.08466 16.9022 5.01964 17.0446C4.95461 17.187 4.92096 17.3417 4.92096 17.4983C4.92096 17.6548 4.95461 17.8096 5.01964 17.952C5.08466 18.0944 5.17954 18.2212 5.29784 18.3237L18.2895 29.5996C18.3408 29.644 18.4023 29.668 18.4673 29.668H21.5947C21.8476 29.668 21.9639 29.3535 21.7724 29.1895L9.80614 18.7988H29.8047C29.9551 18.7988 30.0781 18.6758 30.0781 18.5254V16.4746C30.0781 16.3242 29.9551 16.2012 29.8047 16.2012Z" fill="#F2F2F2"/>
</svg>
