<svg width="35" height="35" viewBox="0 0 35 35" fill="none" xmlns="http://www.w3.org/2000/svg">
<path d="M29.7021 16.6729L16.7891 5.46533C16.6899 5.37988 16.5635 5.33203 16.4302 5.33203H13.4053C13.1523 5.33203 13.0361 5.64648 13.2275 5.81055L25.1973 16.2012H5.19531C5.04492 16.2012 4.92188 16.3242 4.92188 16.4746V18.5254C4.92188 18.6758 5.04492 18.7988 5.19531 18.7988H25.1938L13.2241 29.1895C13.0327 29.3569 13.1489 29.668 13.4019 29.668H16.5293C16.5942 29.668 16.6592 29.644 16.707 29.5996L29.7021 18.3271C29.8205 18.2243 29.9153 18.0972 29.9804 17.9545C30.0454 17.8118 30.079 17.6568 30.079 17.5C30.079 17.3432 30.0454 17.1882 29.9804 17.0455C29.9153 16.9028 29.8205 16.7757 29.7021 16.6729V16.6729Z" fill="#F2F2F2"/>
</svg>
