<svg width="15" height="15" viewBox="0 0 15 15" fill="none" xmlns="http://www.w3.org/2000/svg">
<path d="M14.2342 3.985C14.0721 3.38255 13.5971 2.90765 12.9948 2.74543C11.8943 2.44434 7.4925 2.44434 7.4925 2.44434C7.4925 2.44434 3.09085 2.44434 1.99041 2.73401C1.39964 2.89606 0.913067 3.38264 0.751018 3.985C0.461426 5.08535 0.461426 7.36733 0.461426 7.36733C0.461426 7.36733 0.461426 9.66081 0.751018 10.7497C0.913238 11.352 1.38805 11.8269 1.9905 11.9891C3.10244 12.2903 7.49267 12.2903 7.49267 12.2903C7.49267 12.2903 11.8943 12.2903 12.9948 12.0006C13.5972 11.8385 14.0721 11.3636 14.2343 10.7612C14.5238 9.66081 14.5238 7.37891 14.5238 7.37891C14.5238 7.37891 14.5354 5.08535 14.2342 3.985V3.985ZM6.09106 9.4755V5.25915L9.75139 7.36733L6.09106 9.4755Z" fill="#DFEEB6"/>
</svg>
