<svg width="35" height="35" viewBox="0 0 35 35" fill="none" xmlns="http://www.w3.org/2000/svg">
<path d="M17.5001 0.0732422C7.83516 0.0732422 0 7.90841 0 17.5733C0 26.2417 6.30913 33.4205 14.5814 34.8106V21.2243H10.3599V16.3352H14.5814V12.7301C14.5814 8.54721 17.1362 6.26776 20.8682 6.26776C22.6556 6.26776 24.1917 6.40095 24.6376 6.45961V10.8319L22.0492 10.8331C20.02 10.8331 19.6288 11.7972 19.6288 13.2124V16.3327H24.4706L23.8391 21.2218H19.6288V34.9275C28.2873 33.8737 35 26.512 35 17.5683C35 7.90841 27.1648 0.0732422 17.5001 0.0732422Z" fill="#010002"/>
</svg>
